<?xml version="1.0" standalone="no"?>
<!DOCTYPE svg PUBLIC "-//W3C//DTD SVG 20010904//EN"
 "http://www.w3.org/TR/2001/REC-SVG-20010904/DTD/svg10.dtd">
<svg version="1.0" xmlns="http://www.w3.org/2000/svg"
 width="602.000000pt" height="602.000000pt" viewBox="0 0 602.000000 602.000000"
 preserveAspectRatio="xMidYMid meet">
<metadata>
Created by potrace 1.14, written by Peter Selinger 2001-2017
</metadata>
<g transform="translate(0.000000,602.000000) scale(0.100000,-0.100000)"
fill="#000000" stroke="none">
<path d="M2975 6010 c-11 -4 -60 -22 -110 -39 -206 -73 -485 -200 -655 -298
-144 -83 -328 -203 -415 -270 -16 -13 -34 -27 -40 -31 -26 -19 -151 -118 -161
-127 -6 -5 -40 -35 -75 -65 -144 -124 -407 -401 -517 -545 -12 -17 -42 -56
-66 -87 -243 -317 -480 -772 -608 -1167 -18 -53 -33 -100 -34 -106 -2 -5 -14
-50 -28 -100 -43 -153 -93 -400 -112 -559 -3 -22 -7 -54 -9 -71 -16 -108 -20
-306 -20 -875 0 -355 3 -668 7 -696 11 -76 55 -200 99 -282 110 -206 301 -370
513 -443 75 -26 219 -59 326 -75 19 -2 55 -9 80 -14 25 -5 63 -12 85 -15 22
-4 49 -9 60 -11 11 -1 73 -10 137 -19 65 -9 125 -17 135 -19 10 -2 45 -7 78
-10 33 -4 74 -9 90 -11 54 -7 119 -14 185 -20 36 -4 79 -8 95 -10 17 -2 77 -6
135 -10 58 -4 121 -9 140 -11 244 -26 1220 -25 1450 1 19 2 78 6 130 10 52 3
111 7 130 10 32 3 118 12 210 21 45 4 136 15 164 19 11 2 44 6 71 10 98 13
119 15 144 20 14 2 46 7 71 10 25 3 70 10 100 15 30 5 71 12 90 15 19 3 42 8
50 10 16 4 48 10 115 20 278 43 468 134 627 303 130 138 221 320 245 492 10
71 10 1305 0 1430 -52 651 -236 1219 -587 1819 -245 418 -664 873 -1095 1189
-195 143 -422 278 -657 391 -71 33 -130 61 -133 61 -3 0 -24 9 -48 19 -103 46
-346 133 -366 130 -3 0 -15 -4 -26 -9z"/>
</g>
</svg>
