<svg xmlns="http://www.w3.org/2000/svg" width="385" height="401.001" overflow="visible" xml:space="preserve"><g clip-rule="evenodd"><path fill-rule="evenodd" fill="#FFF" d="M.5 262.02C.5 139.257 81.231 35.353 192.5.5c111.27 34.853 192 138.757 192 261.52v63.642c0 29.993-21.304 55.014-49.602 60.76l-.189.038-.187.037-.187.037c-45.924 9.168-93.317 13.967-141.835 13.967-48.519 0-95.911-4.799-141.835-13.967l-.187-.037-.187-.037-.19-.038C21.804 380.676.5 355.655.5 325.662V262.02z"/><path fill="none" stroke="#000" stroke-linecap="round" stroke-linejoin="round" stroke-miterlimit="3.864" d="M.5 262.02C.5 139.257 81.231 35.353 192.5.5c111.27 34.853 192 138.757 192 261.52v63.642c0 29.993-21.304 55.014-49.602 60.76l-.189.038-.187.037-.187.037c-45.924 9.168-93.317 13.967-141.835 13.967-48.519 0-95.911-4.799-141.835-13.967l-.187-.037-.187-.037-.19-.038C21.804 380.676.5 355.655.5 325.662V262.02z"/></g><path fill-rule="evenodd" clip-rule="evenodd" fill="#006B54" d="M192.5 13.104c104.55 34.42 180 132.87 180 248.916v63.642c0 24.173-17.166 44.365-39.982 48.998-45.164 9.016-92.303 13.841-140.018 13.841s-94.33-4.72-139.492-13.735C30.191 370.132 12.5 349.835 12.5 325.662V262.02c0-116.046 75.45-214.497 180-248.916z"/><path fill-rule="evenodd" clip-rule="evenodd" fill="#FFF" d="M80.844 145.72a11.176 11.176 0 0 1-.887 3.466 13.627 13.627 0 0 1-1.826 3.05 13.576 13.576 0 0 1-2.599 2.493 14.622 14.622 0 0 1-3.204 1.792c-1.881.76-3.714 1.085-5.498.978s-3.466-.598-5.044-1.469c-1.578-.87-3.017-2.113-4.316-3.726-1.298-1.614-2.397-3.533-3.295-5.756-.91-2.252-1.455-4.402-1.636-6.45s-.004-3.928.533-5.636a11.663 11.663 0 0 1 2.626-4.517c1.214-1.303 2.761-2.335 4.642-3.094 2.309-.934 4.676-1.251 7.1-.954 2.424.297 4.6 1.232 6.53 2.807l-3.548 4.268c-.64-.437-1.153-.744-1.54-.92a5.827 5.827 0 0 0-1.333-.406c-.754-.226-1.606-.304-2.556-.235s-1.81.259-2.58.57c-1.31.53-2.29 1.265-2.937 2.206a7.393 7.393 0 0 0-1.231 3.108c-.174 1.13-.146 2.306.08 3.523a18.2 18.2 0 0 0 1.014 3.494c1.267 3.136 2.861 5.318 4.784 6.547 1.922 1.23 3.966 1.406 6.132.531a8.101 8.101 0 0 0 1.697-.909 6.9 6.9 0 0 0 1.297-1.22 8.376 8.376 0 0 0 1.068-1.725c.324-.678.66-1.485 1.011-2.423l5.516.606zM111.655 142.417l-5.04-6.077-12.876 3.936-.736 7.844-5.82 1.779 3.401-33.345 5.38-1.645 21.379 25.769-5.688 1.739zm-16.13-19.322-1.097 11.233 8.29-2.535-7.193-8.698zM122.64 140.019l-5.894-30.326 5.43-1.056 4.99 25.664 17.245-3.352.905 4.662zM152.296 103.834l3.765 30.662-5.491.675-3.765-30.663zM167.857 107.961l.438 6.256 9.613-.673.392 5.612-9.613.673.94 13.43-5.612.393-2.156-30.818 23.045-1.611.386 5.52zM217.816 117.521c-.085 2.428-.462 4.621-1.13 6.582-.667 1.96-1.58 3.628-2.735 5.002s-2.537 2.426-4.146 3.155c-1.61.728-3.399 1.057-5.365.989-2.273-.08-4.215-.617-5.826-1.61s-2.926-2.271-3.949-3.83c-1.022-1.558-1.753-3.306-2.193-5.244a22.591 22.591 0 0 1-.558-5.81c.085-2.457.462-4.659 1.13-6.604.667-1.945 1.594-3.589 2.778-4.932 1.186-1.343 2.598-2.354 4.237-3.035s3.47-.986 5.499-.915c1.904.066 3.627.51 5.167 1.333a12.115 12.115 0 0 1 3.942 3.368c1.088 1.422 1.905 3.119 2.452 5.091.546 1.972.778 4.126.697 6.46zm-5.535-.054c.114-3.257-.427-5.828-1.622-7.716s-2.96-2.872-5.295-2.953-4.194.776-5.58 2.574c-1.386 1.796-2.136 4.323-2.249 7.58-.115 3.318.455 5.922 1.711 7.81 1.258 1.89 3.053 2.876 5.388 2.957 1.474.052 2.691-.229 3.651-.842a6.91 6.91 0 0 0 2.299-2.41c.572-.995.988-2.112 1.247-3.348.259-1.237.41-2.454.45-3.652zM243.01 136.45l-3.242-12.702-8.174-1.148-1.688 12.008-5.48-.77 4.3-30.592 14.064 1.976c1.126.158 2.072.384 2.838.678s1.51.74 2.233 1.339a8.996 8.996 0 0 1 3.002 3.82c.65 1.55.855 3.194.612 4.929-.245 1.735-.9 3.25-1.967 4.543-1.067 1.293-2.45 2.255-4.154 2.885l3.775 13.894-6.118-.86zm2.984-21.232c.168-1.187-.096-2.187-.789-2.998-.693-.811-1.725-1.313-3.094-1.506l-8.675-1.219-1.073 7.625 8.676 1.22c1.37.192 2.5.001 3.387-.572.887-.574 1.41-1.424 1.568-2.55zM274.827 143.273l-9.13-24.183-5.142 20.625-5.28-1.316 7.475-29.976 5.28 1.317 8.804 23.199 4.93-19.775 5.19 1.294-7.474 29.976zM301.947 119.047l-9.547 29.38-5.262-1.709 9.547-29.38zM321.208 159.23l-.093-7.896-12.483-5.043-5.508 5.632-5.644-2.28 23.63-23.773 5.215 2.108.398 33.48-5.515-2.229zm-.375-25.167-7.923 8.039 8.037 3.247-.114-11.286z"/><path style="font-style:normal;font-weight:400;font-size:40px;line-height:1.25;font-family:sans-serif;letter-spacing:0;word-spacing:0;fill:#fff;fill-opacity:1;stroke:none" d="M107.688 189.62c-2.601 0-4.947.316-7.038.948-2.066.608-3.876 1.543-5.431 2.807-1.531 1.24-2.747 2.82-3.647 4.74-.899 1.896-1.347 4.13-1.347 6.707 0 2.334.388 4.279 1.166 5.834.777 1.556 1.822 2.845 3.134 3.865 1.313.997 2.833 1.786 4.559 2.37a57.02 57.02 0 0 0 5.432 1.459c1.434.291 2.795.594 4.084.91 1.312.291 2.49.682 3.535 1.168 1.045.486 1.873 1.116 2.48 1.894.608.754.91 1.75.91 2.99 0 1.41-.328 2.6-.984 3.573-.656.948-1.531 1.702-2.625 2.261-1.07.56-2.283.96-3.645 1.204a26.152 26.152 0 0 1-4.156.328c-2.43 0-4.79-.232-7.074-.694-2.285-.486-4.629-1.251-7.035-2.297v7.547c1.701.948 3.827 1.677 6.379 2.188 2.576.535 5.19.803 7.84.803 3.038 0 5.832-.305 8.384-.912 2.552-.608 4.716-1.532 6.49-2.772 1.8-1.264 3.185-2.855 4.157-4.775.972-1.92 1.457-4.194 1.457-6.819 0-2.552-.425-4.64-1.275-6.27-.851-1.652-2.005-2.99-3.463-4.011-1.459-1.02-3.136-1.81-5.032-2.37a65.337 65.337 0 0 0-5.906-1.53 60.238 60.238 0 0 1-3.719-.875c-1.166-.316-2.2-.73-3.1-1.24-.899-.535-1.615-1.202-2.15-2.005-.51-.802-.765-1.822-.765-3.062 0-2.139.789-3.743 2.369-4.813 1.604-1.069 3.877-1.605 6.818-1.605 2.042 0 4.217.232 6.526.693 2.333.438 4.763 1.154 7.29 2.15v-7.655c-1.895-.803-4.156-1.459-6.78-1.97a40.978 40.978 0 0 0-7.838-.765zm22.275.911v7.475h15.75v41.306h8.933v-41.306h15.713v-7.475h-40.396zm42.219 0 18.484 29.131v19.65h8.934v-19.65l18.484-29.13h-9.918l-12.978 21h-.11l-12.978-21h-9.918zm52.5 0v48.781h31.756v-7.474h-22.823V190.53h-8.933zm40.105 0v48.781h32.922v-7.474h-23.99v-13.744h19.469v-7.475h-19.47v-12.613h22.678v-7.475h-31.609zM82.531 259.62c-2.6 0-4.947.317-7.037.95-2.066.607-3.876 1.542-5.431 2.806-1.532 1.24-2.748 2.82-3.647 4.74-.9 1.896-1.348 4.13-1.348 6.707 0 2.334.389 4.279 1.166 5.834.778 1.556 1.823 2.845 3.135 3.865 1.313.997 2.833 1.786 4.559 2.37a57.02 57.02 0 0 0 5.431 1.459c1.434.291 2.796.594 4.084.91 1.313.291 2.49.682 3.536 1.168 1.045.486 1.872 1.116 2.48 1.894.608.754.91 1.75.91 2.99 0 1.41-.328 2.6-.984 3.573-.656.948-1.531 1.702-2.625 2.261-1.07.56-2.284.96-3.645 1.204a26.152 26.152 0 0 1-4.156.328c-2.43 0-4.79-.232-7.074-.694-2.285-.486-4.63-1.251-7.035-2.296v7.546c1.701.948 3.826 1.677 6.379 2.188 2.576.535 5.19.803 7.84.803 3.038 0 5.832-.305 8.384-.913 2.552-.607 4.716-1.531 6.49-2.771 1.799-1.264 3.184-2.855 4.157-4.775.972-1.92 1.457-4.194 1.457-6.819 0-2.552-.425-4.64-1.276-6.27-.85-1.652-2.004-2.99-3.463-4.011-1.458-1.02-3.135-1.81-5.03-2.37a65.336 65.336 0 0 0-5.907-1.53 60.238 60.238 0 0 1-3.719-.875c-1.167-.316-2.2-.73-3.1-1.24-.899-.535-1.615-1.202-2.15-2.005-.51-.802-.766-1.822-.766-3.062 0-2.139.79-3.743 2.37-4.813 1.604-1.069 3.877-1.605 6.818-1.605 2.042 0 4.216.232 6.525.693 2.334.438 4.764 1.154 7.291 2.15v-7.655c-1.895-.803-4.156-1.459-6.78-1.97a40.978 40.978 0 0 0-7.839-.765zm222.834 0c-2.6 0-4.947.317-7.037.95-2.066.607-3.876 1.542-5.432 2.806-1.53 1.24-2.747 2.82-3.646 4.74-.9 1.896-1.35 4.13-1.35 6.707 0 2.334.39 4.279 1.168 5.834.778 1.556 1.823 2.845 3.135 3.865 1.313.997 2.831 1.786 4.557 2.37a57.062 57.062 0 0 0 5.433 1.459c1.434.291 2.794.594 4.082.91 1.313.291 2.492.682 3.538 1.168 1.045.486 1.87 1.116 2.478 1.894.608.754.912 1.75.912 2.99 0 1.41-.328 2.6-.984 3.573-.656.948-1.531 1.702-2.625 2.261-1.07.56-2.286.96-3.647 1.204a26.152 26.152 0 0 1-4.156.328 35.61 35.61 0 0 1-7.072-.694c-2.285-.486-4.631-1.251-7.037-2.296v7.546c1.701.948 3.828 1.677 6.38 2.188 2.577.535 5.19.803 7.838.803 3.039 0 5.835-.305 8.387-.913 2.552-.607 4.714-1.531 6.488-2.771 1.799-1.264 3.184-2.855 4.157-4.775.972-1.92 1.459-4.194 1.459-6.819 0-2.552-.425-4.64-1.276-6.27-.85-1.652-2.006-2.99-3.465-4.011-1.458-1.02-3.135-1.81-5.03-2.37a65.337 65.337 0 0 0-5.907-1.53 60.238 60.238 0 0 1-3.719-.875c-1.167-.316-2.198-.73-3.098-1.24-.899-.535-1.617-1.202-2.152-2.005-.51-.802-.765-1.822-.765-3.062 0-2.139.79-3.743 2.37-4.813 1.605-1.069 3.876-1.605 6.817-1.605 2.042 0 4.218.232 6.527.693 2.334.438 4.764 1.154 7.291 2.15v-7.655c-1.895-.803-4.156-1.459-6.78-1.97a40.977 40.977 0 0 0-7.839-.765zm-195.818.912v48.781h8.932v-21.218h22.605v21.219h8.932V260.53h-8.932v20.088h-22.605v-20.088h-8.932zm52.209 0v48.781h32.922v-7.474h-23.99v-13.744h19.468v-7.475h-19.469v-12.613h22.678v-7.475h-31.61zm42.437 0v48.781h32.922v-7.474h-23.99v-13.744h19.469v-7.475h-19.469v-12.613h22.678v-7.475h-31.61zm37.698 0v7.475h15.75v41.307h8.931v-41.307h15.715v-7.475h-40.396z"/></svg>