<?xml version="1.0" encoding="UTF-8"?>
<!-- Generator: Adobe Illustrator 15.1.0, SVG Export Plug-In . SVG Version: 6.00 Build 0)  -->
<!DOCTYPE svg PUBLIC "-//W3C//DTD SVG 1.1//EN" "http://www.w3.org/Graphics/SVG/1.1/DTD/svg11.dtd">
<svg version="1.1" xmlns="http://www.w3.org/2000/svg" xmlns:xlink="http://www.w3.org/1999/xlink" x="0px" y="0px" width="288px" height="140px" viewBox="0 0 288 140" enable-background="new 0 0 288 347.316" xml:space="preserve">
<g id="Seagull">
	<path id="seagull_color" fill="#FFFFFF" d="M117.958,148.841c-3.37-0.306-10.57-2.911-12.409-8.119c-6.449-18.272-29.259-61.277-14.4-72.919   c11.249-11.169,21.753-9.804,21.906-16.698c-4.769-14.789-16.811-9.147-23.898-21.14C77.208,9.743,69.166,6.591,62.809,6.591   H39.067c-18.558,0-33.601,15.044-33.601,33.603v266.929c0,18.557,15.043,33.602,33.601,33.602h209.864   c18.559,0,33.603-15.045,33.603-33.602v-156.75L117.958,148.841z"/>
	<path fill="#D93F27" stroke="#000000" stroke-width="0.3064" stroke-miterlimit="10" d="M47.183,51.641l55.483,7.95h46.542   c0,0-2.604-12.775-18.842-18.903c-18.125-1.12-21.064,0.766-25.746,0.627c-0.32-0.306-15.156-1.164-15.156-1.164L47.183,51.641z"/>
	<path fill="#D93F27" stroke="#000000" stroke-width="0.3064" stroke-miterlimit="10" d="M27.064,33.028   c0,0,4.901-5.004,12.766-4.698c7.864,0.307,12.766,4.698,12.766,4.698s-5.515,5.719-12.255,5.719   C30.944,38.441,27.064,33.028,27.064,33.028z"/>
	<circle cx="40.852" cy="33.532" r="3.37"/>
	<path fill="none" stroke="#000000" stroke-width="0.3064" stroke-miterlimit="10" d="M47.183,51.641l60.204,1.302l25.966,0.613   c0,0,10.647,0.121,15.855,6.035"/>
	<path fill="none" stroke="#000000" stroke-width="0.3064" stroke-miterlimit="10" d="M104.068,47.53c0,0,8.783-3.881,17.821,0.562   C119.54,50.623,104.324,50.339,104.068,47.53z"/>
</g>
</svg>